<?xml version="1.0" encoding="UTF-8" standalone="no"?>
<!-- Created with Inkscape (http://www.inkscape.org/) -->

<svg
   xmlns:dc="http://purl.org/dc/elements/1.1/"
   xmlns:cc="http://creativecommons.org/ns#"
   xmlns:rdf="http://www.w3.org/1999/02/22-rdf-syntax-ns#"
   xmlns:svg="http://www.w3.org/2000/svg"
   xmlns="http://www.w3.org/2000/svg"
   version="1.1"
   width="16"
   height="80"
   id="rw3">
  <g
     id="g94">
    <path
       inkscape:connector-curvature="0"
       style="fill:#008000;stroke:none;stroke-width:0.19032256"
       id="path4003"
       d="m -6.9103236,74.342043 c 0,8.372041 -0.3714526,40.540617 0.5135854,43.283677 2.028936,1.02962 3.978097,1.24527 6.39384936,1.25051 0.001975858,10e-6 0.003803991,0 0.00576139,0 2.41575235,-0.005 4.36491335,-0.22089 6.39384935,-1.25051 0.885038,-2.74306 0.5135854,-34.911636 0.5135854,-43.283677 H 5.5138167 v 3.36535 C 4.4606274,78.742896 2.8247068,81.57697 2.8247068,83.242751 v 6.375163 l 0.3462373,0.631387 v 7.944433 l -3.16807155,0.0061 h -0.00576139 l -3.16807156,-0.0061 v -7.944433 l 0.3462373,-0.631387 v -6.375163 c 0,-1.665781 -1.6359206,-4.499855 -2.6891099,-5.535358 v -3.36535 z" />
    <path
       inkscape:connector-curvature="0"
       style="fill:#cccccc;stroke:none;stroke-width:0.19032256"
       id="path3959"
       d="M -4.4550183e-6,41.123766 C -2.0101014,41.123766 -6.9132098,49.073692 -6.9132098,74.348173 h 1.3964905 v 3.35922 c 1.0531894,1.035503 2.68911,3.869577 2.68911,5.535358 v 6.375163 l -0.3462374,0.631387 v 7.950563 H -4.4550183e-6 3.1738377 V 90.249301 L 2.8276004,89.617914 v -6.375163 c 0,-1.665781 1.6359206,-4.499855 2.68911,-5.535358 v -3.35922 h 1.3964905 c 0,-25.274481 -4.9031084,-33.224407 -6.9132053550183,-33.224407 z" />
    <path
       inkscape:connector-curvature="0"
       style="fill:#ffffff;stroke:none;stroke-width:0.19032256"
       id="path3955"
       d="m -0.00288884,59.979536 c -1.55144796,5.89e-4 -4.13460376,0.234406 -4.55302086,1.170824 l -0.028853,4.511653 h 0.9002171 v 12.20476 H -0.00288884 0.00287255 3.6845295 V 65.662013 H 4.5847466 L 4.5558935,61.15036 c -0.4184172,-0.936418 -3.001573,-1.170288 -4.55302095,-1.170824 -0.0018466,0 -0.00397019,0 -0.00576139,0 z" />
    <path
       inkscape:connector-curvature="0"
       style="fill:#ffcc00;fill-opacity:1;stroke:none;stroke-width:0.19032256"
       id="path3963"
       d="M -1.3688014e-5,106.37287 C -2.8716969,106.37287 -5.199335,108.84545 -5.199335,111.89597 c 0,3.05051 2.3276381,5.52309 5.199321311986,5.52309 C 2.871688,117.41906 5.1993261,114.94648 5.1993261,111.89597 c 0,-3.05052 -2.3276381,-5.5231 -5.199339788014,-5.5231 z m 0,1.36085 C 2.1634249,107.73372 3.918248,109.59782 3.918248,111.89597 c 0,2.29814 -1.7548231,4.16224 -3.918261688014,4.16224 -2.163420111986,0 -3.918243211986,-1.8641 -3.918243211986,-4.16224 0,-2.29815 1.7548231,-4.16225 3.918243211986,-4.16225 z" />
    <path
       inkscape:connector-curvature="0"
       style="fill:#ffffff;fill-opacity:1;stroke:none;stroke-width:0.19032256"
       id="rect3980"
       d="m -1.8379467,114.72012 v -2.40908 -1.06661 -2.26809 h 1.00408826 v 2.26809 h 0.82519898 0.01730263 0.82519897 v -2.26809 H 1.8379304 v 2.26809 1.06661 2.40908 H 0.83384214 v -2.40908 H 0.00864317 -0.00865946 -0.83385844 v 2.40908 z" />
    <path
       inkscape:connector-curvature="0"
       style="fill:#ff0000;fill-opacity:1;stroke:none;stroke-width:0.19032256"
       id="path4038"
       d="m -4.9165653,80.242031 c 0.6581445,0 1.6025747,2.144008 1.6025747,3.184094 v 5.499066 c 0,0.355999 -0.2539942,0.353086 -0.4688995,0.353086 -0.2429922,-0.346113 -0.6593578,-0.604836 -1.1336752,-0.618924 -0.4743175,-0.01412 -0.8683633,0.233248 -1.1336752,0.618924 0,0 -0.4689162,-0.01448 -0.4689162,-0.353086 v -5.499066 c 0,-1.135101 0.9444468,-3.184094 1.6025914,-3.184094 z" />
    <path
       inkscape:connector-curvature="0"
       style="fill:#00c800;fill-opacity:1;stroke:none;stroke-width:0.19032256"
       id="path4040"
       d="m 4.9165749,80.242031 c 0.6581445,0 1.6025747,2.144008 1.6025747,3.184094 v 5.499066 c 0,0.355999 -0.2539942,0.353086 -0.4688995,0.353086 -0.2429921,-0.346113 -0.6593578,-0.604836 -1.1336752,-0.618924 -0.4743175,-0.01412 -0.8683632,0.233248 -1.1336752,0.618924 0,0 -0.4689162,-0.01448 -0.4689162,-0.353086 v -5.499066 c 0,-1.135101 0.9444468,-3.184094 1.6025914,-3.184094 z" />
    <path
       inkscape:connector-curvature="0"
       style="fill:#999999;fill-opacity:1;stroke:none;stroke-width:0.19032256"
       id="path4024"
       d="m -6.3044083,67.525523 a 0.2252228,0.23924764 0 0 0 -0.017303,0.0061 0.2252228,0.23924764 0 0 0 -0.1904305,0.239068 v 1.698001 a 0.2252228,0.23924764 0 0 0 0.1788893,0.232938 l 5.57442098,1.434412 h 0.005761 c 0.53808975,0.152252 0.94912055,0.145903 1.54075613,-0.0061 L 6.3332543,69.70166 a 0.2252228,0.23924764 0 0 0 0.1788893,-0.232939 v -1.698 A 0.2252228,0.23924764 0 0 0 6.2351537,67.537783 l -5.53979726,1.428281 a 0.2252228,0.23924764 0 0 0 -0.005761,0 c -0.51707544,0.147178 -0.84677279,0.149024 -1.3272431,0.01226 a 0.2252228,0.23924764 0 0 0 -0.005761,0 L -6.2351423,67.537783 a 0.2252228,0.23924764 0 0 0 -0.069248,-0.01226 z M -6.50638,89.666954 a 0.23199932,0.24644615 0 0 0 -0.1962012,0.245199 v 1.753169 a 0.23199932,0.24644615 0 0 0 0.1788893,0.239069 l 5.74753968,1.477321 h 0.005761 c 0.55427888,0.156833 0.97748431,0.150478 1.5869211,-0.0061 L 6.5294462,91.904401 a 0.23199932,0.24644615 0 0 0 0.1788893,-0.239069 v -1.75317 A 0.23199932,0.24644615 0 0 0 6.4255843,89.673084 l -5.70714537,1.471191 a 0.23199932,0.24644615 0 0 0 -0.005761,0 c -0.53263304,0.151608 -0.87271012,0.15314 -1.36763746,0.01226 a 0.23199932,0.24644615 0 0 0 -0.005761,0 L -6.4198207,89.673084 a 0.23199932,0.24644615 0 0 0 -0.086559,-0.0061 z" />
    <path
       inkscape:connector-curvature="0"
       style="fill:#000000;stroke:none;stroke-width:0.92136848"
       id="path4132"
       d="m -4.6e-6,39.999996 c -1.0990353,0 -1.8973142,0.815879 -2.7295591,2.095672 -0.8322448,1.279793 -1.6685795,3.176981 -2.4293075,5.831435 -1.5214561,5.308909 -2.7568547,13.705981 -2.7568547,26.423691 0,4.167837 -0.100931,14.310421 -0.081887,23.75095 0.00952,4.720266 0.0459,9.266496 0.136478,12.817006 0.045289,1.77526 0.1145827,3.30869 0.1910691,4.49507 0.076486,1.18638 0.1074873,1.89957 0.3275471,2.58162 a 1.0067123,1.1201782 0 0 0 0.5459118,0.66819 c 2.2025257,1.11771 4.329378,1.33101 6.7966021,1.33637 2.4672218,-0.005 4.594075,-0.21866 6.7966021,-1.33637 a 1.0067123,1.1201782 0 0 0 0.5459118,-0.66819 c 0.2200601,-0.68205 0.2510609,-1.39524 0.3275471,-2.58162 0.076489,-1.18638 0.1457803,-2.71981 0.1910691,-4.49507 0.090578,-3.55051 0.1269555,-8.09674 0.136478,-12.817006 0.019044,-9.440529 -0.081887,-19.583113 -0.081887,-23.75095 0,-12.71771 -1.2353985,-21.114782 -2.7568547,-26.423691 C 4.3981344,45.272649 3.5617992,43.375461 2.7295545,42.095668 1.8973097,40.815875 1.0990307,39.999996 -4.6e-6,39.999996 Z m 0,1.123766 c 2.0100971,0 6.9057844,7.952552 6.9057844,33.227032 0,8.372041 0.3664222,40.537116 -0.5186162,43.280186 -0.9351024,0.47453 -1.8582759,0.75491 -2.8114458,0.94153 L 1.3647749,93.242214 0.98263666,93.33333 3.1662839,118.66363 c -0.9927873,0.1604 -2.0202314,0.21012 -3.1662885,0.2126 -1.1572189,-0.003 -2.1920419,-0.0788 -3.1935841,-0.24297 l 2.1836472,-25.29993 -0.3821382,-0.121488 -2.2109429,25.360668 c -0.9438618,-0.18698 -1.8575403,-0.47131 -2.7841502,-0.94153 -0.885038,-2.74307 -0.5186162,-34.908145 -0.5186162,-43.280186 0,-25.27448 4.8956874,-33.227032 6.9057844,-33.227032 z m 0,0 c -0.10850805,0 -0.19106913,0.09734 -0.19106913,0.212604 v 27.72969 c 0.12841619,0.01328 0.25097251,0.0136 0.38213826,0 v -27.72969 c 0,-0.115263 -0.082563,-0.212604 -0.19106913,-0.212604 z m -0.19106913,30.129082 v 19.984814 c 0.12829617,0.01295 0.25119778,0.04347 0.38213826,0.03037 V 71.252844 c -0.13084449,0.01129 -0.2550258,0.0095 -0.38213826,0 z" />
  </g>
</svg>
