<?xml version="1.0" encoding="UTF-8" standalone="no"?>
<!-- Created with Inkscape (http://www.inkscape.org/) -->

<svg
   xmlns:dc="http://purl.org/dc/elements/1.1/"
   xmlns:cc="http://creativecommons.org/ns#"
   xmlns:rdf="http://www.w3.org/1999/02/22-rdf-syntax-ns#"
   xmlns:svg="http://www.w3.org/2000/svg"
   xmlns="http://www.w3.org/2000/svg"
   version="1.1"
   width="16"
   height="80"
   id="rw3">
  <g>
    <path
       style="fill:#008000;stroke:none;stroke-width:0.19032256"
       d="m 1.0896812,34.342043 c 0,8.372041 -0.3714526,40.540617 0.5135854,43.283677 2.028936,1.02962 3.978097,1.24527 6.3938494,1.25051 0.00198,10e-6 0.0038,0 0.00576,0 2.4157526,-0.005 4.3649136,-0.22089 6.3938496,-1.25051 0.885038,-2.74306 0.513585,-34.911636 0.513585,-43.283677 h -1.396491 v 3.36535 c -1.053189,1.035503 -2.689109,3.869577 -2.689109,5.535358 v 6.375163 l 0.346237,0.631387 v 7.944433 l -3.1680717,0.0061 h -0.00576 l -3.1680716,-0.0061 v -7.944433 l 0.3462373,-0.631387 v -6.375163 c 0,-1.665781 -1.6359206,-4.499855 -2.6891099,-5.535358 v -3.36535 z" />
    <path
       style="fill:#cccccc;stroke:none;stroke-width:0.19032256"
       d="m 8.0000003,1.123766 c -2.0100969,0 -6.9132053,7.949926 -6.9132053,33.224407 h 1.3964905 v 3.35922 c 1.0531894,1.035503 2.68911,3.869577 2.68911,5.535358 v 6.375163 l -0.3462374,0.631387 v 7.950563 h 3.1738422 3.1738417 v -7.950563 l -0.346237,-0.631387 v -6.375163 c 0,-1.665781 1.635921,-4.499855 2.68911,-5.535358 v -3.35922 h 1.396491 c 0,-25.274481 -4.903109,-33.224407 -6.9132057,-33.224407 z" />
    <path
       style="fill:#ffffff;stroke:none;stroke-width:0.19032256"
       d="m 7.997116,19.979536 c -1.551448,5.89e-4 -4.1346038,0.234406 -4.5530209,1.170824 l -0.028853,4.511653 h 0.9002171 v 12.20476 h 3.6816568 0.00576 3.6816567 v -12.20476 h 0.900217 l -0.02885,-4.511653 c -0.418417,-0.936418 -3.0015727,-1.170288 -4.5530207,-1.170824 -0.00185,0 -0.00397,0 -0.00576,0 z" />
    <path
       style="fill:#ffcc00;fill-opacity:1;stroke:none;stroke-width:0.19032256"
       d="m 7.9999911,66.37287 c -2.8716832,0 -5.1993213,2.47258 -5.1993213,5.5231 0,3.05051 2.3276381,5.52309 5.1993213,5.52309 2.8717019,0 5.1993399,-2.47258 5.1993399,-5.52309 0,-3.05052 -2.327638,-5.5231 -5.1993399,-5.5231 z m 0,1.36085 c 2.1634389,0 3.9182619,1.8641 3.9182619,4.16225 0,2.29814 -1.754823,4.16224 -3.9182619,4.16224 -2.1634201,0 -3.9182432,-1.8641 -3.9182432,-4.16224 0,-2.29815 1.7548231,-4.16225 3.9182432,-4.16225 z" />
    <path
       style="fill:#ffffff;fill-opacity:1;stroke:none;stroke-width:0.19032256"
       d="m 6.1620581,74.72012 v -2.40908 -1.06661 -2.26809 h 1.0040883 v 2.26809 h 0.8251989 0.017303 0.8251989 v -2.26809 h 1.0040883 v 2.26809 1.06661 2.40908 H 8.8338469 V 72.31104 H 8.008648 7.9913453 7.1661464 v 2.40908 z" />
    <path
       style="fill:#ff0000;fill-opacity:1;stroke:none;stroke-width:0.19032256"
       d="m 3.0834395,40.242031 c 0.6581445,0 1.6025747,2.144008 1.6025747,3.184094 v 5.499066 c 0,0.355999 -0.2539942,0.353086 -0.4688995,0.353086 -0.2429922,-0.346113 -0.6593578,-0.604836 -1.1336752,-0.618924 -0.4743175,-0.01412 -0.8683633,0.233248 -1.1336752,0.618924 0,0 -0.4689162,-0.01448 -0.4689162,-0.353086 v -5.499066 c 0,-1.135101 0.9444468,-3.184094 1.6025914,-3.184094 z" />
    <path
       style="fill:#00c800;fill-opacity:1;stroke:none;stroke-width:0.19032256"
       d="m 12.91658,40.242031 c 0.658144,0 1.602574,2.144008 1.602574,3.184094 v 5.499066 c 0,0.355999 -0.253994,0.353086 -0.468899,0.353086 -0.242992,-0.346113 -0.659358,-0.604836 -1.133675,-0.618924 -0.474318,-0.01412 -0.868364,0.233248 -1.133676,0.618924 0,0 -0.468916,-0.01448 -0.468916,-0.353086 v -5.499066 c 0,-1.135101 0.944447,-3.184094 1.602592,-3.184094 z" />
    <path
       style="fill:#999999;fill-opacity:1;stroke:none;stroke-width:0.19032256"
       d="m 1.6955965,27.525523 a 0.2252228,0.23924764 0 0 0 -0.017303,0.0061 0.2252228,0.23924764 0 0 0 -0.1904305,0.239068 v 1.698001 a 0.2252228,0.23924764 0 0 0 0.1788893,0.232938 l 5.574421,1.434412 h 0.00576 c 0.5380897,0.152252 0.9491205,0.145903 1.5407561,-0.0061 L 14.333259,29.70166 a 0.2252228,0.23924764 0 0 0 0.178889,-0.232939 v -1.698 a 0.2252228,0.23924764 0 0 0 -0.27699,-0.232938 l -5.5397968,1.428281 a 0.2252228,0.23924764 0 0 0 -0.00576,0 c -0.5170754,0.147178 -0.8467728,0.149024 -1.3272431,0.01226 a 0.2252228,0.23924764 0 0 0 -0.00576,0 L 1.7648625,27.537783 a 0.2252228,0.23924764 0 0 0 -0.069248,-0.01226 z M 1.4936248,49.666954 a 0.23199932,0.24644615 0 0 0 -0.1962012,0.245199 v 1.753169 a 0.23199932,0.24644615 0 0 0 0.1788893,0.239069 l 5.7475397,1.477321 h 0.00576 c 0.5542789,0.156833 0.9774843,0.150478 1.5869211,-0.0061 l 5.7129163,-1.471211 a 0.23199932,0.24644615 0 0 0 0.178889,-0.239069 v -1.75317 a 0.23199932,0.24644615 0 0 0 -0.282751,-0.239078 l -5.7071453,1.471191 a 0.23199932,0.24644615 0 0 0 -0.00576,0 c -0.532633,0.151608 -0.8727101,0.15314 -1.3676374,0.01226 a 0.23199932,0.24644615 0 0 0 -0.00576,0 L 1.5801841,49.673084 a 0.23199932,0.24644615 0 0 0 -0.086559,-0.0061 z" />
    <path
       style="fill:#000000;stroke:none;stroke-width:0.92136848"
       d="M 8.0000002,-4e-6 C 6.9009649,-4e-6 6.102686,0.815875 5.2704411,2.095668 4.4381963,3.375461 3.6018616,5.272649 2.8411336,7.927103 1.3196775,13.236012 0.0842789,21.633084 0.0842789,34.350794 c 0,4.167837 -0.100931,14.310421 -0.081887,23.75095 0.00952,4.720266 0.0459,9.266496 0.136478,12.817006 0.045289,1.77526 0.1145827,3.30869 0.1910691,4.49507 0.076486,1.18638 0.1074873,1.89957 0.3275471,2.58162 a 1.0067123,1.1201782 0 0 0 0.5459118,0.66819 C 3.4059236,79.78134 5.5327759,79.99464 8,80 c 2.467222,-0.005 4.594075,-0.21866 6.796602,-1.33637 a 1.0067123,1.1201782 0 0 0 0.545912,-0.66819 c 0.22006,-0.68205 0.251061,-1.39524 0.327547,-2.58162 0.07649,-1.18638 0.14578,-2.71981 0.191069,-4.49507 0.09058,-3.55051 0.126956,-8.09674 0.136478,-12.817006 0.01904,-9.440529 -0.08189,-19.583113 -0.08189,-23.75095 0,-12.71771 -1.235398,-21.114782 -2.756855,-26.423691 C 12.398139,5.272649 11.561804,3.375461 10.729559,2.095668 9.8973145,0.815875 9.0990355,-4e-6 8.0000002,-4e-6 Z m 0,1.123766 c 2.0100968,0 6.9057848,7.952552 6.9057848,33.227032 0,8.372041 0.366422,40.537116 -0.518617,43.280186 -0.935102,0.47453 -1.858275,0.75491 -2.811445,0.94153 L 9.3647797,53.242214 8.9826415,53.33333 11.166289,78.66363 c -0.992788,0.1604 -2.0202317,0.21012 -3.1662888,0.2126 -1.1572189,-0.003 -2.1920419,-0.0788 -3.1935841,-0.24297 L 6.9900633,53.33333 6.6079251,53.211842 4.3969822,78.57251 C 3.4531204,78.38553 2.5394419,78.1012 1.612832,77.63098 0.727794,74.88791 1.0942158,42.722835 1.0942158,34.350794 c 0,-25.27448 4.8956874,-33.227032 6.9057844,-33.227032 z m 0,0 c -0.1085081,0 -0.1910691,0.09734 -0.1910691,0.212604 v 27.72969 c 0.1284162,0.01328 0.2509725,0.0136 0.3821382,0 V 1.336366 c 0,-0.115263 -0.082563,-0.212604 -0.1910691,-0.212604 z M 7.8089311,31.252844 v 19.984814 c 0.1282961,0.01295 0.2511978,0.04347 0.3821382,0.03037 V 31.252844 c -0.1308445,0.01129 -0.2550258,0.0095 -0.3821382,0 z" />
  </g>
</svg>
